<mxfile host="Electron" modified="2023-05-20T11:07:13.496Z" agent="Mozilla/5.0 (Windows NT 10.0; Win64; x64) AppleWebKit/537.36 (KHTML, like Gecko) draw.io/21.2.8 Chrome/112.0.5615.165 Electron/24.2.0 Safari/537.36" etag="he2gQFxTqs-KieuHIIqF" version="21.2.8" type="device">
  <diagram name="Page-1" id="Pw9JSh9NwdhnITtbTx-N">
    <mxGraphModel dx="802" dy="943" grid="1" gridSize="10" guides="1" tooltips="1" connect="1" arrows="1" fold="1" page="1" pageScale="1" pageWidth="1169" pageHeight="827" math="0" shadow="0">
      <root>
        <mxCell id="0" />
        <mxCell id="1" parent="0" />
        <UserObject label="&lt;div style=&quot;font-size: 11.27px;&quot;&gt;&lt;font style=&quot;font-size: 11.27px; direction: ltr; letter-spacing: 0px; line-height: 120%; opacity: 1;&quot;&gt;Start&lt;/font&gt;&lt;/div&gt;" Function="EN_DIO_Error_T DIO_init(uint8_t pinNumber, EN_DIO_PORT_T portNumber, EN_DIO_DIRECTION_T direction);" tags="Flowchart" id="HiYMhsk3yBKpYevTSb-c-1">
          <mxCell style="verticalAlign=middle;align=center;overflow=width;vsdxID=30;fillColor=#dae8fc;shape=stencil(tVLREoIgEPwaHnEQxsl3s/9gEpSJwDko7e+DsEkze2l627vdu5uFRaxyHe8FosR5sCcxqMZ3iO0Rpcp0ApQPCLEasUpaEC3Yi2lS3fOojOhsr3HDmObyMtsVcYqS29Qh5FEfklwrM5OXeUa/yjkcAwfr7TDpiyTfXvjkMR+Vw2A998qaBac5tAKHU1hq3i4oNwjRr9ofvayt/+Rk+yX/4iWA159KpXWKxJx/z0Bopfyw+g4=);strokeColor=#6c8ebf;spacingTop=-1;spacingBottom=-1;spacingLeft=-1;spacingRight=-1;points=[[0.5,1,0],[0.5,0,0],[0,0.5,0],[1,0.5,0]];labelBackgroundColor=none;rounded=1;html=1;whiteSpace=wrap;fontFamily=Calibri;fontSize=11.27;" vertex="1" parent="1">
            <mxGeometry x="151.25" y="280" width="101" height="38" as="geometry" />
          </mxCell>
        </UserObject>
        <UserObject label="" Function="EN_DIO_Error_T DIO_init(uint8_t pinNumber, EN_DIO_PORT_T portNumber, EN_DIO_DIRECTION_T direction);" tags="Flowchart" id="HiYMhsk3yBKpYevTSb-c-5">
          <mxCell style="vsdxID=219;fillColor=#fff2cc;shape=stencil(UzV2Ls5ILEhVNTIoLinKz04tz0wpyVA1dlE1MsrMy0gtyiwBslSNXVWNndPyi1LTi/JL81Ig/IJEkEoQKze/DGRCBUSfAUiHkUElhGcK4bpBVOZk5iGpNEVVikeloQHZpsK0YlWLz1QgA+HFtMycHEgIIcujBwlQCBKcxq4A);strokeColor=#d6b656;spacingTop=-1;spacingBottom=-1;spacingLeft=-1;spacingRight=-1;points=[[0,0.5,0],[1,0.5,0],[0.5,0,0],[0.5,1,0]];labelBackgroundColor=none;rounded=1;html=1;whiteSpace=wrap;fontFamily=Calibri;fontSize=11.27;" vertex="1" parent="1">
            <mxGeometry x="6.75" y="360" width="390" height="170" as="geometry" />
          </mxCell>
        </UserObject>
        <mxCell id="HiYMhsk3yBKpYevTSb-c-6" value="&lt;div style=&quot;font-size: 11.27px;&quot;&gt;A_interruptConfig[elementIndex].EXTERNAL_INTERRUPRT_Number&lt;br style=&quot;font-size: 11.27px;&quot;&gt;&lt;/div&gt;" style="text;vsdxID=219;fillColor=none;gradientColor=none;strokeColor=none;spacingTop=-1;spacingBottom=-1;spacingLeft=-1;spacingRight=-1;points=[[0,0.5,0],[1,0.5,0],[0.5,0,0],[0.5,1,0]];labelBackgroundColor=none;rounded=1;html=1;whiteSpace=wrap;verticalAlign=middle;align=center;overflow=width;;html=1;fontColor=#000000;fontFamily=Calibri;fontSize=11.27;" vertex="1" parent="HiYMhsk3yBKpYevTSb-c-5">
          <mxGeometry x="30.07412844036698" y="21.52347826086956" width="329.8612844036698" height="126.95304347826085" as="geometry" />
        </mxCell>
        <mxCell id="HiYMhsk3yBKpYevTSb-c-9" value="" style="endArrow=classic;html=1;rounded=0;fontSize=11.27;startSize=8;endSize=8;curved=1;exitX=0.5;exitY=1;exitDx=0;exitDy=0;exitPerimeter=0;fontFamily=Calibri;" edge="1" parent="1" source="HiYMhsk3yBKpYevTSb-c-1">
          <mxGeometry width="50" height="50" relative="1" as="geometry">
            <mxPoint x="248.75" y="490" as="sourcePoint" />
            <mxPoint x="200.9296875" y="360" as="targetPoint" />
          </mxGeometry>
        </mxCell>
        <mxCell id="HiYMhsk3yBKpYevTSb-c-12" value="" style="endArrow=classic;html=1;rounded=0;fontSize=11.27;startSize=8;endSize=8;exitX=0.5;exitY=1;exitDx=0;exitDy=0;exitPerimeter=0;edgeStyle=orthogonalEdgeStyle;fontFamily=Calibri;" edge="1" parent="1" source="HiYMhsk3yBKpYevTSb-c-5">
          <mxGeometry width="50" height="50" relative="1" as="geometry">
            <mxPoint x="280" y="570" as="sourcePoint" />
            <mxPoint x="440" y="635" as="targetPoint" />
            <Array as="points">
              <mxPoint x="200" y="530" />
              <mxPoint x="200" y="635" />
            </Array>
          </mxGeometry>
        </mxCell>
        <mxCell id="HiYMhsk3yBKpYevTSb-c-13" value="Case : EXT0_INTERRUPTS" style="text;html=1;strokeColor=none;fillColor=none;align=center;verticalAlign=middle;whiteSpace=wrap;rounded=0;fontSize=11;fontFamily=Calibri;" vertex="1" parent="1">
          <mxGeometry x="250" y="590" width="130" height="30" as="geometry" />
        </mxCell>
        <mxCell id="HiYMhsk3yBKpYevTSb-c-14" value="&lt;div style=&quot;font-size: 11.27px;&quot;&gt;&lt;div&gt;				CLEAR_BIT(GICR_REG,GICR_REG_INT0_BITS);&lt;/div&gt;&lt;div&gt;&lt;br&gt;&lt;/div&gt;&lt;/div&gt;" style="rounded=0;whiteSpace=wrap;html=1;fontSize=11.27;fillColor=#d5e8d4;strokeColor=#82b366;fontFamily=Calibri;" vertex="1" parent="1">
          <mxGeometry x="440" y="590" width="240" height="80" as="geometry" />
        </mxCell>
        <mxCell id="HiYMhsk3yBKpYevTSb-c-40" value="" style="endArrow=classic;html=1;rounded=0;fontSize=11.27;startSize=8;endSize=8;edgeStyle=orthogonalEdgeStyle;exitX=0.388;exitY=0.908;exitDx=0;exitDy=0;exitPerimeter=0;fontFamily=Calibri;" edge="1" parent="1" source="HiYMhsk3yBKpYevTSb-c-5">
          <mxGeometry width="50" height="50" relative="1" as="geometry">
            <mxPoint x="120" y="760" as="sourcePoint" />
            <mxPoint x="440" y="790" as="targetPoint" />
            <Array as="points">
              <mxPoint x="160" y="514" />
              <mxPoint x="160" y="790" />
            </Array>
          </mxGeometry>
        </mxCell>
        <mxCell id="HiYMhsk3yBKpYevTSb-c-41" value="Case : EXT1_INTERRUPTS" style="text;html=1;strokeColor=none;fillColor=none;align=center;verticalAlign=middle;whiteSpace=wrap;rounded=0;fontSize=11;fontFamily=Calibri;" vertex="1" parent="1">
          <mxGeometry x="233.5" y="759" width="130" height="30" as="geometry" />
        </mxCell>
        <mxCell id="HiYMhsk3yBKpYevTSb-c-42" value="&lt;div style=&quot;font-size: 11.27px;&quot;&gt;&lt;div&gt;				CLEAR_BIT(GICR_REG,GICR_REG_INT1_BITS);&lt;/div&gt;&lt;div&gt;&lt;br&gt;&lt;/div&gt;&lt;/div&gt;" style="rounded=0;whiteSpace=wrap;html=1;fontSize=11.27;fillColor=#d5e8d4;strokeColor=#82b366;fontFamily=Calibri;" vertex="1" parent="1">
          <mxGeometry x="440" y="747" width="240" height="80" as="geometry" />
        </mxCell>
        <mxCell id="HiYMhsk3yBKpYevTSb-c-66" value="" style="endArrow=classic;html=1;rounded=0;fontSize=11.27;startSize=8;endSize=8;edgeStyle=orthogonalEdgeStyle;exitX=0.356;exitY=0.862;exitDx=0;exitDy=0;exitPerimeter=0;fontFamily=Calibri;" edge="1" parent="1" source="HiYMhsk3yBKpYevTSb-c-5">
          <mxGeometry width="50" height="50" relative="1" as="geometry">
            <mxPoint x="70" y="900" as="sourcePoint" />
            <mxPoint x="440" y="930" as="targetPoint" />
            <Array as="points">
              <mxPoint x="146" y="510" />
              <mxPoint x="110" y="510" />
              <mxPoint x="110" y="930" />
              <mxPoint x="380" y="930" />
            </Array>
          </mxGeometry>
        </mxCell>
        <mxCell id="HiYMhsk3yBKpYevTSb-c-67" value="Case : EXT2_INTERRUPTS" style="text;html=1;strokeColor=none;fillColor=none;align=center;verticalAlign=middle;whiteSpace=wrap;rounded=0;fontSize=11;fontFamily=Calibri;" vertex="1" parent="1">
          <mxGeometry x="233.5" y="890" width="130" height="30" as="geometry" />
        </mxCell>
        <mxCell id="HiYMhsk3yBKpYevTSb-c-70" value="&lt;div style=&quot;&quot;&gt;&lt;div style=&quot;&quot;&gt;&lt;div style=&quot;&quot;&gt;CLEAR_BIT(GICR_REG,GICR_REG_INT2_BITS);&lt;span style=&quot;font-size: 11.27px;&quot;&gt;&lt;/span&gt;&lt;/div&gt;&lt;/div&gt;&lt;div style=&quot;font-size: 11.27px;&quot;&gt;&lt;br&gt;&lt;/div&gt;&lt;/div&gt;" style="rounded=0;whiteSpace=wrap;html=1;fontSize=11.27;fillColor=#d5e8d4;strokeColor=#82b366;fontFamily=Calibri;" vertex="1" parent="1">
          <mxGeometry x="440" y="890" width="240" height="80" as="geometry" />
        </mxCell>
        <UserObject label="&lt;div style=&quot;font-size: 11.27px;&quot;&gt;&lt;span style=&quot;font-size: 11.27px;&quot;&gt;Stop&lt;/span&gt;&lt;/div&gt;" Function="EN_DIO_Error_T DIO_init(uint8_t pinNumber, EN_DIO_PORT_T portNumber, EN_DIO_DIRECTION_T direction);" tags="Flowchart" id="HiYMhsk3yBKpYevTSb-c-80">
          <mxCell style="verticalAlign=middle;align=center;overflow=width;vsdxID=30;fillColor=#dae8fc;shape=stencil(tVLREoIgEPwaHnEQxsl3s/9gEpSJwDko7e+DsEkze2l627vdu5uFRaxyHe8FosR5sCcxqMZ3iO0Rpcp0ApQPCLEasUpaEC3Yi2lS3fOojOhsr3HDmObyMtsVcYqS29Qh5FEfklwrM5OXeUa/yjkcAwfr7TDpiyTfXvjkMR+Vw2A998qaBac5tAKHU1hq3i4oNwjRr9ofvayt/+Rk+yX/4iWA159KpXWKxJx/z0Bopfyw+g4=);strokeColor=#6c8ebf;spacingTop=-1;spacingBottom=-1;spacingLeft=-1;spacingRight=-1;points=[[0.5,1,0],[0.5,0,0],[0,0.5,0],[1,0.5,0]];labelBackgroundColor=none;rounded=1;html=1;whiteSpace=wrap;fontFamily=Calibri;fontSize=11.27;" vertex="1" parent="1">
            <mxGeometry x="820" y="768" width="101" height="38" as="geometry" />
          </mxCell>
        </UserObject>
        <mxCell id="HiYMhsk3yBKpYevTSb-c-101" value="" style="endArrow=classic;html=1;rounded=0;fontSize=12;startSize=8;endSize=8;exitX=1;exitY=0.5;exitDx=0;exitDy=0;entryX=0.5;entryY=0;entryDx=0;entryDy=0;entryPerimeter=0;edgeStyle=orthogonalEdgeStyle;" edge="1" parent="1" source="HiYMhsk3yBKpYevTSb-c-14" target="HiYMhsk3yBKpYevTSb-c-80">
          <mxGeometry width="50" height="50" relative="1" as="geometry">
            <mxPoint x="690" y="630" as="sourcePoint" />
            <mxPoint x="680" y="560" as="targetPoint" />
          </mxGeometry>
        </mxCell>
        <mxCell id="HiYMhsk3yBKpYevTSb-c-102" value="" style="endArrow=classic;html=1;rounded=0;fontSize=12;startSize=8;endSize=8;curved=1;exitX=1;exitY=0.5;exitDx=0;exitDy=0;entryX=0;entryY=0.5;entryDx=0;entryDy=0;entryPerimeter=0;" edge="1" parent="1" source="HiYMhsk3yBKpYevTSb-c-42" target="HiYMhsk3yBKpYevTSb-c-80">
          <mxGeometry width="50" height="50" relative="1" as="geometry">
            <mxPoint x="630" y="750" as="sourcePoint" />
            <mxPoint x="680" y="700" as="targetPoint" />
          </mxGeometry>
        </mxCell>
        <mxCell id="HiYMhsk3yBKpYevTSb-c-103" value="" style="endArrow=classic;html=1;rounded=0;fontSize=12;startSize=8;endSize=8;exitX=1;exitY=0.5;exitDx=0;exitDy=0;entryX=0.5;entryY=1;entryDx=0;entryDy=0;entryPerimeter=0;edgeStyle=orthogonalEdgeStyle;" edge="1" parent="1" source="HiYMhsk3yBKpYevTSb-c-70" target="HiYMhsk3yBKpYevTSb-c-80">
          <mxGeometry width="50" height="50" relative="1" as="geometry">
            <mxPoint x="630" y="750" as="sourcePoint" />
            <mxPoint x="680" y="700" as="targetPoint" />
          </mxGeometry>
        </mxCell>
      </root>
    </mxGraphModel>
  </diagram>
</mxfile>
